<?xml version="1.0" encoding="utf-8"?>
<!-- Generator: Adobe Illustrator 23.0.5, SVG Export Plug-In . SVG Version: 6.00 Build 0)  -->
<svg version="1.1" id="Layer_1" xmlns="http://www.w3.org/2000/svg" xmlns:xlink="http://www.w3.org/1999/xlink" x="0px" y="0px"
	 viewBox="0 0 48 48" style="enable-background:new 0 0 48 48;" xml:space="preserve">
<style type="text/css">
	.st0{fill-rule:evenodd;clip-rule:evenodd;fill:#5D025F;}
</style>
<path class="st0" d="M41,46L41,46c0,0.6-0.4,1-1,1H12l0,0c-2.8,0-5-2.2-5-5V6c0-2.8,2.2-5,5-5l0,0h26l0,0c0.4,0,0.8,0.3,0.9,0.6
	C39,1.7,39,1.9,39,2l0,0v7l0,0h1l0,0c0.3,0,0.5,0.1,0.7,0.3C40.9,9.5,41,9.7,41,10l0,0V46z M9,42L9,42L9,42c0,1.7,1.3,3,3,3h3V11h-3
	l0,0c-1.1,0-2.2-0.4-3-1V42z M37,9V3H12l0,0l0,0c-1.7,0-3,1.3-3,3s1.3,3,3,3H37L37,9z M39,11H17v34h22V11z M12,7c-0.6,0-1-0.4-1-1
	s0.4-1,1-1h22c0.6,0,1,0.4,1,1s-0.4,1-1,1H12z"/>
</svg>
