<?xml version="1.0" encoding="utf-8"?>
<!-- Generator: Adobe Illustrator 23.0.5, SVG Export Plug-In . SVG Version: 6.00 Build 0)  -->
<svg version="1.1" id="Lineal" xmlns="http://www.w3.org/2000/svg" xmlns:xlink="http://www.w3.org/1999/xlink" x="0px" y="0px"
	 viewBox="0 0 512 512" style="enable-background:new 0 0 512 512;" xml:space="preserve">
<style type="text/css">
	.st0{fill:#5D025F;}
</style>
<title></title>
<g id="_29._Man_doctor">
	<path class="st0" d="M418,440.7V488c0,4.4-3.6,8-8,8s-8-3.6-8-8v-47.3c0-22.1-11-42.8-29.4-55.2c-3.7-2.5-4.6-7.5-2.1-11.1
		s7.5-4.6,11.1-2.1l0,0C404.4,387.6,418,413.3,418,440.7z M287,382.4l-26.2,20c-1.4,1-3.1,1.6-4.8,1.6l0,0c-1.3,0-2.7-0.4-3.9-1
		c-0.9-0.5,2.3,1.9-48.5-36.9c-5.1,3.3-10.7,5.7-16.6,6.9v36c16,4.4,25.3,20.9,20.9,36.9S187,471.3,171,466.9S145.7,446,150.1,430
		c2.8-10.2,10.8-18.1,20.9-20.9v-34.6c-34.5,2.9-61,31.7-61,66.3V488c0,4.4-3.6,8-8,8s-8-3.6-8-8v-47.3c0-45.6,36.9-82.5,82.5-82.6
		c0,0,0.1,0,0.1,0c18.4,0,33.4-14.9,33.4-33.3v-2.1c-35.9-17.2-59.4-52.8-60.9-92.6c-14.7-3.5-25-16.6-25.1-31.6V101
		c0-17.2,12.6-31.9,29.6-34.6c14.3-30.8,45.3-50.5,79.3-50.4h68.6c48.3,0.1,87.5,39.2,87.5,87.5v94.9c0,4.4-3.6,8-8,8s-8-3.6-8-8
		v-94.9C373,64,341,32,301.5,32h-68.6c-29.3-0.1-55.6,17.8-66.4,45c-1.2,3-4.2,5-7.4,5c-10.5,0-19,8.5-19,19v97.5
		c0,6.2,3.5,11.8,9,14.6v-51.9c0-30.9,25.1-56,56-56h102c30.9,0,56,25.1,56,56v65.5c0,69.6-68,122.4-137.2,102.1
		c-0.7,9.6-4.3,18.8-10.3,26.3l40.4,30.8l21.3-16.3c3.5-2.8,8.5-2.2,11.2,1.3c2.8,3.5,2.2,8.5-1.3,11.2
		C287.2,382.3,287.1,382.3,287,382.4L287,382.4z M256,317.1c50.2-0.1,90.9-40.8,91-91v-64.9c0-22.1-17.9-40-40-40H205
		c-22.1,0-40,17.9-40,40v64.9C165.1,276.4,205.8,317.1,256,317.1z M179,424c-7.7,0-14,6.3-14,14s6.3,14,14,14s14-6.3,14-14
		S186.7,424,179,424z M341,408.8c0-45.6,0.7-44.9-2-47.9c-1.4-1.6-3.4-2.6-5.5-2.7c-11-0.6-21-6.6-26.7-16c-2.2-3.8-7.1-5.2-10.9-3
		s-5.2,7.1-3,10.9c0.1,0.1,0.1,0.2,0.2,0.4c7.1,11.6,18.6,19.7,31.9,22.5v35.7c-20.3,3.9-35,21.6-35,42.3v37c0,4.4,3.6,8,8,8
		s8-3.6,8-8v-37c0-14.9,12.1-27,27-27s27,12.1,27,27v37c0,4.4,3.6,8,8,8s8-3.6,8-8v-37C376,430.3,361.3,412.6,341,408.8z"/>
</g>
</svg>
