<?xml version="1.0" encoding="utf-8"?>
<!-- Generator: Adobe Illustrator 23.0.5, SVG Export Plug-In . SVG Version: 6.00 Build 0)  -->
<svg version="1.1" id="Layer_1" xmlns="http://www.w3.org/2000/svg" xmlns:xlink="http://www.w3.org/1999/xlink" x="0px" y="0px"
	 viewBox="0 0 500 500" style="enable-background:new 0 0 500 500;" xml:space="preserve">
<style type="text/css">
	.st0{fill:none;stroke:#5D025F;stroke-width:10;stroke-linecap:round;stroke-linejoin:round;stroke-miterlimit:2.6131;}
	.st1{fill-rule:evenodd;clip-rule:evenodd;fill:#5D025F;}
</style>
<line class="st0" x1="133.7" y1="126.2" x2="233.2" y2="126.2"/>
<path class="st0" d="M233.2,126.2c7.2,0,13.1,5.9,13.1,13.1"/>
<line class="st0" x1="246.3" y1="139.3" x2="246.3" y2="321.9"/>
<path class="st0" d="M246.3,321.9c0,7.2-5.9,13.1-13.1,13.1"/>
<line class="st0" x1="233.2" y1="335" x2="90" y2="335"/>
<path class="st0" d="M90,335c-7.2,0-13.1-5.9-13.1-13.1"/>
<polyline class="st0" points="76.9,321.9 76.9,178.7 133.7,126.2 "/>
<line class="st0" x1="136.3" y1="126.2" x2="136.3" y2="173.4"/>
<path class="st0" d="M136.3,173.4c0,3.9-3.2,7-7,7"/>
<line class="st0" x1="129.3" y1="180.5" x2="76.9" y2="180.5"/>
<g>
	<path class="st1" d="M319.2,285.2c4.1,3.4,6.2,8.7,6.2,15.9c0,7.2-2.1,12.4-6.3,15.7c-4.2,3.3-10.6,5-19.3,5h-10.5v17.3h-10V280
		h20.3C308.6,280,315.1,281.7,319.2,285.2L319.2,285.2z M312.2,309.6L312.2,309.6c2-2.1,3-5.2,3-9.3s-1.3-7-3.8-8.7
		c-2.6-1.7-6.5-2.5-12-2.5h-10.1v23.7h11.6C306.4,312.7,310.1,311.7,312.2,309.6z"/>
	<path class="st1" d="M381.9,287.8c5.7,5.1,8.5,12.3,8.5,21.5c0,9.2-2.8,16.4-8.3,21.8c-5.5,5.4-14,8-25.4,8h-19.6V280h20.3
		C368,280,376.2,282.6,381.9,287.8L381.9,287.8z M380.3,309.5L380.3,309.5c0-13.5-7.8-20.3-23.3-20.3h-10v40.5h11.1
		c7.1,0,12.6-1.7,16.5-5.1C378.4,321.2,380.3,316.2,380.3,309.5z"/>
	<polygon class="st1" points="413.2,289.3 413.2,305.5 439.4,305.5 439.4,314.8 413.2,314.8 413.2,339.1 403.2,339.1 403.2,280 
		442.7,280 442.6,289.3 	"/>
</g>
<line class="st0" x1="279.8" y1="245.3" x2="455.7" y2="245.3"/>
<path class="st0" d="M455.7,245.3c10.7,0,19.3,8.6,19.3,19.3"/>
<line class="st0" x1="475" y1="264.6" x2="475" y2="354.6"/>
<path class="st0" d="M475,354.6c0,10.6-8.6,19.3-19.3,19.3"/>
<line class="st0" x1="455.7" y1="373.8" x2="44.3" y2="373.8"/>
<path class="st0" d="M44.3,373.8c-10.6,0-19.3-8.6-19.3-19.3"/>
<line class="st0" x1="25" y1="354.6" x2="25" y2="264.6"/>
<path class="st0" d="M25,264.6c0-10.6,8.6-19.3,19.3-19.3"/>
<line class="st0" x1="163.3" y1="186.9" x2="163.3" y2="303.7"/>
<line class="st0" x1="163.3" y1="303.7" x2="200.3" y2="266.7"/>
<line class="st0" x1="163.3" y1="303.7" x2="122.9" y2="263.2"/>
</svg>
