<?xml version="1.0" encoding="utf-8"?>
<!-- Generator: Adobe Illustrator 23.0.5, SVG Export Plug-In . SVG Version: 6.00 Build 0)  -->
<svg version="1.1" id="Capa_1" xmlns="http://www.w3.org/2000/svg" xmlns:xlink="http://www.w3.org/1999/xlink" x="0px" y="0px"
	 viewBox="0 0 24 24" style="enable-background:new 0 0 24 24;" xml:space="preserve">
<style type="text/css">
	.st0{fill:#5D025F;}
</style>
<path class="st0" d="M4,12c0,0.6,0.4,1,1,1h7.6l-2.3,2.3c-0.4,0.4-0.4,1,0,1.4c0,0,0,0,0,0c0.4,0.4,1,0.4,1.4,0c0,0,0,0,0,0l4-4
	c0.1-0.1,0.2-0.2,0.2-0.3c0.1-0.2,0.1-0.5,0-0.8c0-0.1-0.1-0.2-0.2-0.3l-4-4c-0.4-0.4-1-0.4-1.4,0s-0.4,1,0,1.4l2.3,2.3H5
	C4.4,11,4,11.4,4,12z M17,2H7C5.3,2,4,3.3,4,5v3c0,0.6,0.4,1,1,1s1-0.4,1-1V5c0-0.6,0.4-1,1-1h10c0.6,0,1,0.4,1,1v14
	c0,0.6-0.4,1-1,1H7c-0.6,0-1-0.4-1-1v-3c0-0.6-0.4-1-1-1s-1,0.4-1,1v3c0,1.7,1.3,3,3,3h10c1.7,0,3-1.3,3-3V5C20,3.3,18.7,2,17,2z"/>
</svg>
