<?xml version="1.0" encoding="utf-8"?>
<!-- Generator: Adobe Illustrator 23.0.5, SVG Export Plug-In . SVG Version: 6.00 Build 0)  -->
<svg version="1.1" id="Capa_1" xmlns="http://www.w3.org/2000/svg" xmlns:xlink="http://www.w3.org/1999/xlink" x="0px" y="0px"
	 viewBox="0 0 7.7 7.7" style="enable-background:new 0 0 7.7 7.7;" xml:space="preserve">
<style type="text/css">
	.st0{fill:#5D025F;}
</style>
<g id="Layer_x0020_1">
	<path class="st0" d="M3.8,3.1c0.1,0,0.2,0.1,0.2,0.2c0,0.1,0.1,0.2,0.2,0.2c0.1,0,0.2-0.1,0.2-0.2c0-0.3-0.2-0.6-0.5-0.7V2.6
		c0-0.1-0.1-0.2-0.2-0.2c-0.1,0-0.2,0.1-0.2,0.2v0.1C3.3,2.8,3.1,3.1,3.1,3.4c0,0.4,0.3,0.7,0.7,0.7c0.1,0,0.2,0.1,0.2,0.2
		c0,0.1-0.1,0.2-0.2,0.2c-0.1,0-0.2-0.1-0.2-0.2c0-0.1-0.1-0.2-0.2-0.2c-0.1,0-0.2,0.1-0.2,0.2c0,0.3,0.2,0.6,0.5,0.7v0.1
		c0,0.1,0.1,0.2,0.2,0.2c0.1,0,0.2-0.1,0.2-0.2V5c0.3-0.1,0.5-0.4,0.5-0.7c0-0.4-0.3-0.7-0.7-0.7c-0.1,0-0.2-0.1-0.2-0.2
		C3.6,3.2,3.7,3.1,3.8,3.1z M5.7,5.1C5.8,5.1,6,5.1,6,5c0.2-0.4,0.3-0.8,0.3-1.2c0-1.4-1.1-2.5-2.5-2.5c-1.4,0-2.5,1.1-2.5,2.5
		c0,1.4,1.1,2.5,2.5,2.5C4.2,6.3,4.6,6.2,5,6C5.1,6,5.1,5.8,5.1,5.7C5,5.6,4.9,5.6,4.8,5.6C4.5,5.8,4.2,5.9,3.8,5.9
		c-1.1,0-2-0.9-2-2c0-1.1,0.9-2,2-2s2,0.9,2,2c0,0.3-0.1,0.7-0.2,0.9C5.6,4.9,5.6,5,5.7,5.1z M3.8,0.5C3.2,0.5,2.6,0.7,2,1
		C1.9,1.1,1.9,1.2,1.9,1.3C2,1.4,2.1,1.4,2.3,1.4c0.5-0.3,1-0.5,1.6-0.5c1.6,0,2.9,1.3,2.9,2.9c0,1.6-1.3,2.9-2.9,2.9
		S0.9,5.5,0.9,3.8c0-0.6,0.2-1.1,0.5-1.6C1.4,2.2,1.4,2,1.3,2C1.2,1.9,1.1,1.9,1,2C0.6,2.6,0.5,3.2,0.5,3.8c0,1.9,1.5,3.4,3.4,3.4
		c1.9,0,3.4-1.5,3.4-3.4C7.2,2,5.7,0.5,3.8,0.5z"/>
</g>
</svg>
