<?xml version="1.0" encoding="utf-8"?>
<!-- Generator: Adobe Illustrator 23.0.5, SVG Export Plug-In . SVG Version: 6.00 Build 0)  -->
<svg version="1.1" id="Capa_1" xmlns="http://www.w3.org/2000/svg" xmlns:xlink="http://www.w3.org/1999/xlink" x="0px" y="0px"
	 viewBox="0 0 96 96" style="enable-background:new 0 0 96 96;" xml:space="preserve">
<style type="text/css">
	.st0{fill:none;stroke:#5D025F;stroke-width:4;stroke-linecap:round;stroke-linejoin:round;}
</style>
<title></title>
<path class="st0" d="M21,56v20.9C21,86.3,28.6,94,38,94c0,0,0,0,0,0l0,0c9.4,0,17-7.7,17-17.1c0,0,0,0,0,0V54"/>
<circle class="st0" cx="21" cy="48" r="8"/>
<circle class="st0" cx="21" cy="48" r="8"/>
<polygon class="st0" points="71.5,6 76.5,4 71.5,2 "/>
<path class="st0" d="M36,4h-4.1C29,4,26.7,7,27,10.4C29.3,30.5,38.7,54,55,54s25.8-23.5,28-43.7C83.3,7,81,4,78.1,4H74"/>
<polygon class="st0" points="38.5,6 33.5,4 38.5,2 "/>
<circle class="st0" cx="21" cy="48" r="2"/>
</svg>
