<?xml version="1.0" encoding="utf-8"?>
<!-- Generator: Adobe Illustrator 23.0.5, SVG Export Plug-In . SVG Version: 6.00 Build 0)  -->
<svg version="1.1" id="Capa_1" xmlns="http://www.w3.org/2000/svg" xmlns:xlink="http://www.w3.org/1999/xlink" x="0px" y="0px"
	 viewBox="0 0 32 32" style="enable-background:new 0 0 32 32;" xml:space="preserve">
<style type="text/css">
	.st0{fill:#FFFFFF;}
</style>
<g id="search_magnifier_magnifying_glass_loupe">
	<g id="search_funds_x2C__magnifying_glass_x2C__magnifier_x2C__loupe_1_">
		<g id="analysis_2_">
			<g>
				<g>
					<g>
						<path class="st0" d="M23.6,23.6c0.1-0.1,0.3-0.2,0.4-0.3L21.7,21c-0.2-0.2-0.5-0.2-0.7,0c-0.2,0.2-0.2,0.5,0,0.7l2.3,2.3
							C23.4,23.8,23.5,23.7,23.6,23.6z"/>
						<path class="st0" d="M28.5,31c-0.7,0-1.3-0.3-1.8-0.7l-3.5-3.5c-0.5-0.5-0.7-1.1-0.7-1.8s0.3-1.3,0.7-1.8
							c0.9-0.9,2.6-0.9,3.5,0l3.5,3.5c0.5,0.5,0.7,1.1,0.7,1.8s-0.3,1.3-0.7,1.8S29.2,31,28.5,31z M25,23.5c-0.4,0-0.8,0.2-1.1,0.4
							c-0.3,0.3-0.4,0.7-0.4,1.1s0.2,0.8,0.4,1.1l3.5,3.5c0.6,0.6,1.6,0.6,2.1,0c0.3-0.3,0.4-0.7,0.4-1.1s-0.2-0.8-0.4-1.1l-3.5-3.5
							C25.8,23.7,25.4,23.5,25,23.5z"/>
					</g>
					<g>
						<path class="st0" d="M13,22.5c-0.3,0-0.5-0.2-0.5-0.5s0.2-0.5,0.5-0.5c3.8,0,7-2.4,8.1-6c0.1-0.3,0.4-0.4,0.6-0.3
							c0.3,0.1,0.4,0.4,0.3,0.6C20.9,19.8,17.2,22.5,13,22.5z"/>
					</g>
					<path class="st0" d="M13,25C6.4,25,1,19.6,1,13S6.4,1,13,1s12,5.4,12,12S19.6,25,13,25z M13,2C6.9,2,2,6.9,2,13s4.9,11,11,11
						s11-4.9,11-11S19.1,2,13,2z"/>
				</g>
			</g>
		</g>
	</g>
	<circle class="st0" cx="22" cy="13" r="0.5"/>
</g>
</svg>
