<?xml version="1.0" encoding="utf-8"?>
<!-- Generator: Adobe Illustrator 23.0.5, SVG Export Plug-In . SVG Version: 6.00 Build 0)  -->
<svg version="1.1" id="Capa_1" xmlns="http://www.w3.org/2000/svg" xmlns:xlink="http://www.w3.org/1999/xlink" x="0px" y="0px"
	 viewBox="0 0 32 32" style="enable-background:new 0 0 32 32;" xml:space="preserve">
<style type="text/css">
	.st0{fill:#fff;}
	.st1{fill:none;}
</style>
<title></title>
<g id="Layer_2">
	<path class="st0" d="M24.3,23H13.5c-1.4,0-2.5-0.9-2.9-2.2L8,11.3c-0.1-0.3,0-0.6,0.2-0.9C8.4,10.1,8.7,10,9,10h19
		c0.3,0,0.6,0.1,0.8,0.4c0.2,0.2,0.3,0.5,0.2,0.8l-1.7,9.4C27,22,25.8,23,24.3,23z M10.3,12l2.3,8.3c0.1,0.4,0.5,0.8,1,0.7h10.8
		c0.5,0,0.9-0.3,1-0.8l1.4-8.2H10.3z"/>
	<path class="st0" d="M9,12c-0.5,0-0.9-0.3-1-0.7L6.4,5.7C6.3,5.3,5.9,5,5.4,5H4C3.4,5,3,4.6,3,4s0.4-1,1-1h1.5C6.8,3,8,3.9,8.4,5.2
		l1.6,5.5c0.2,0.5-0.1,1.1-0.7,1.3c0,0,0,0-0.1,0C9.2,12,9.1,12,9,12z"/>
	<path class="st0" d="M16,29c-1.1,0-2-0.9-2-2s0.9-2,2-2s2,0.9,2,2S17.1,29,16,29z M16,27L16,27z M16,27L16,27z M16,27L16,27z
		 M16,27L16,27z M16,27L16,27z M16,27L16,27z M16,27L16,27z M16,27L16,27z"/>
	<path class="st0" d="M22,29c-1.1,0-2-0.9-2-2s0.9-2,2-2s2,0.9,2,2S23.1,29,22,29z"/>
	<path class="st0" d="M22,17h-6c-0.6,0-1-0.4-1-1c0-0.6,0.4-1,1-1h6c0.6,0,1,0.4,1,1C23,16.6,22.6,17,22,17z"/>
</g>
<g id="frame">
	<rect class="st1" width="32" height="32"/>
</g>
</svg>
