<?xml version="1.0" encoding="utf-8"?>
<!-- Generator: Adobe Illustrator 23.0.5, SVG Export Plug-In . SVG Version: 6.00 Build 0)  -->
<svg version="1.1" id="Capa_1" xmlns="http://www.w3.org/2000/svg" xmlns:xlink="http://www.w3.org/1999/xlink" x="0px" y="0px"
	 viewBox="0 0 32 32" style="enable-background:new 0 0 32 32;" xml:space="preserve">
<style type="text/css">
	.st0{fill:#73DFA1;}
	.st1{fill:none;}
</style>
<title></title>
<g id="Layer_2">
	<path class="st0" d="M23.5,29h-15c-3,0-5.5-2.5-5.5-5.5c0-0.5,0.1-0.9,0.2-1.3l3-12.4C6.4,9.3,6.8,9,7.3,9H24c0.5,0,0.9,0.3,1,0.7
		l3.8,12.2c0.5,1.7,0.2,3.5-0.8,4.9C26.9,28.2,25.3,29,23.5,29z M8,11L5.1,22.6c-0.5,1.9,0.7,3.8,2.5,4.2C7.9,27,8.2,27,8.5,27h15
		c1.1,0,2.1-0.5,2.8-1.4c0.7-0.9,0.9-2.1,0.5-3.1L23.3,11H8z"/>
	<path class="st0" d="M20,17c-0.6,0-1-0.4-1-1V8c0-1.7-1.3-3-3-3s-3,1.3-3,3v8c0,0.6-0.4,1-1,1s-1-0.4-1-1V8c0-2.8,2.2-5,5-5
		s5,2.2,5,5v8C21,16.6,20.6,17,20,17z"/>
</g>
<g id="frame">
	<rect class="st1" width="32" height="32"/>
</g>
</svg>
